<svg id="Layer_1" data-name="Layer 1" xmlns="http://www.w3.org/2000/svg" viewBox="0 0 17.53 12.53"><defs><style>.cls-1{fill:#666666;}</style></defs><g id="mail"><path class="cls-1" d="M17.9,1H1.44l-.1.05a.33.33,0,0,0-.1.06.76.76,0,0,0-.09.09l0,0v.05l-.05.12L1,1.57V12.9a.63.63,0,0,0,.63.63H17.9a.63.63,0,0,0,.63-.63V1.63A.63.63,0,0,0,17.9,1ZM9.76,6.52,3.63,2.26H16.71ZM2.25,12.27V2.83l7.16,5h0l.11,0h.05a.7.7,0,0,0,.19.06h0A.58.58,0,0,0,10,7.83h.05l7.21-4.45v8.89Z" transform="translate(-1 -1)"/></g></svg>