<svg id="Layer_1" data-name="Layer 1" xmlns="http://www.w3.org/2000/svg" xmlns:xlink="http://www.w3.org/1999/xlink" viewBox="0 0 41.88 37.96"><defs><style>.cls-1{fill:none;}.cls-2{clip-path:url(#clip-path);}.cls-3{fill:#ed263e;}</style><clipPath id="clip-path" transform="translate(0 0)"><rect class="cls-1" width="41.88" height="37.96"/></clipPath></defs><g class="cls-2"><path class="cls-3" d="M41.88,17.75v2.46c0,.12-.05.23-.07.35-.18,1.06-.27,2.15-.55,3.18A18.9,18.9,0,0,1,24.85,37.85a18.6,18.6,0,0,1-13.41-3.76.69.69,0,0,1-.32-.63q0-14.48,0-29a.71.71,0,0,1,.33-.64,18.91,18.91,0,0,1,21.41-1,18.7,18.7,0,0,1,8.72,12.82c.13.69.2,1.39.3,2.09m-19,10.39A9.16,9.16,0,1,0,13.74,19a9.18,9.18,0,0,0,9.16,9.16" transform="translate(0 0)"/><path class="cls-3" d="M0,17.67c.11-.82.19-1.65.33-2.46s.33-1.56.51-2.38l3.27.94a.69.69,0,0,1,.47.77v8.83c0,.54-.13.71-.63.86L.8,25.14C.58,24,.37,22.81.17,21.66c-.08-.45-.12-.91-.17-1.37Z" transform="translate(0 0)"/><path class="cls-3" d="M1.27,26.37l2.95-.85a2,2,0,0,0,1.67-2.24V14.61a2,2,0,0,0-1.61-2.15c-1-.29-1.93-.56-2.9-.84l-.1-.07c.12-.32.24-.65.37-1A22.55,22.55,0,0,1,6,3.83a1.56,1.56,0,0,1,1.29-.56c.42,0,.85,0,1.27,0A1.3,1.3,0,0,1,9.81,4.55c0,.13,0,.25,0,.37V33.06c0,1.17-.46,1.63-1.64,1.63-1.84,0-1.58.2-2.93-1.38a21.7,21.7,0,0,1-3.81-6.48c-.06-.14-.1-.28-.17-.46" transform="translate(0 0)"/><path class="cls-3" d="M15.05,19a7.86,7.86,0,1,1,7.83,7.87A7.86,7.86,0,0,1,15.05,19m11.12,0a3.27,3.27,0,1,0-3.29,3.25A3.27,3.27,0,0,0,26.17,19M22.9,13.09a.66.66,0,1,0,.66.65.67.67,0,0,0-.66-.65M19,14.4a.66.66,0,0,0-.67.63.65.65,0,1,0,1.3,0A.66.66,0,0,0,19,14.4m8.48.67a.65.65,0,1,0-1.3,0,.65.65,0,0,0,.63.66.66.66,0,0,0,.67-.63M17,19a.65.65,0,0,0,1.3.06.66.66,0,0,0-.62-.68A.66.66,0,0,0,17,19m11.77,0a.65.65,0,1,0-.63.67.66.66,0,0,0,.63-.67M19,22.26a.65.65,0,0,0,0,1.3.65.65,0,1,0,0-1.3m8.52.66a.65.65,0,0,0-1.3,0,.65.65,0,1,0,1.3,0m-4.61,1.95a.67.67,0,0,0,.69-.62.66.66,0,1,0-.69.62" transform="translate(0 0)"/></g></svg>