<?xml version="1.0" encoding="utf-8"?>
<!-- Generator: Adobe Illustrator 16.0.0, SVG Export Plug-In . SVG Version: 6.00 Build 0)  -->
<!DOCTYPE svg PUBLIC "-//W3C//DTD SVG 1.1//EN" "http://www.w3.org/Graphics/SVG/1.1/DTD/svg11.dtd">
<svg version="1.1" id="Warstwa_1" xmlns="http://www.w3.org/2000/svg" xmlns:xlink="http://www.w3.org/1999/xlink" x="0px" y="0px"
	 width="150px" height="30px" viewBox="4 9.5 150 30" enable-background="new 4 9.5 150 30" xml:space="preserve">
<g>
	<path fill="#004C9A" d="M154,34.5c0,2.75-2.25,5-5,5H9c-2.75,0-5-2.25-5-5v-20c0-2.75,2.25-5,5-5h140c2.75,0,5,2.25,5,5V34.5z"/>
</g>
<path fill="#FFFFFF" d="M33.809,28.526v-7.488h0.934v6.893h2.8c0,0.361-0.361,0.595-0.88,0.595H33.809z M40.982,25.389
	c0.382,0,0.509-0.17,0.509-0.509c0-0.785-0.54-1.497-1.25-1.497c-0.878,0-1.355,1.091-1.348,2.006h2.091H40.982z M42.213,27.17
	c-0.224,0.806-0.881,1.464-1.89,1.464c-1.133,0-2.3-0.849-2.3-2.854c0-1.951,1.071-2.873,2.281-2.873
	c1.198,0,2.036,0.942,2.036,1.962c0,0.676-0.424,1.016-1.111,1.016h-2.325c0,0.99,0.564,2.058,1.634,2.058
	c0.657,0,1.081-0.37,1.401-0.912l0.277,0.14L42.213,27.17z M46.634,24.146c0-0.455-0.371-0.72-0.912-0.72
	c-0.891,0-1.612,0.773-1.612,2.43c0,1.41,0.53,2.12,1.325,2.12c0.5,0,0.903-0.265,1.199-0.625V24.146z M47.525,28.526
	c-0.084,0.014-0.201,0.014-0.275,0.014c-0.264,0-0.424-0.12-0.477-0.426l-0.032-0.233l-0.096-0.013
	c-0.392,0.468-0.858,0.744-1.473,0.744c-1.176,0-1.949-1.007-1.949-2.621c0-1.928,1.157-3.064,2.579-3.064
	c0.5,0,0.964,0.128,1.262,0.308c0.32,0.17,0.469,0.403,0.469,0.785v4.507H47.525z M51.009,25.442
	c0.849,0.316,1.719,0.668,1.719,1.622c0,0.891-0.797,1.591-2.016,1.591c-0.966,0-1.835-0.425-2.111-1.527
	c0.138-0.055,0.265-0.096,0.393-0.096c0.35,0,0.562,0.266,0.721,0.508c0.139,0.233,0.415,0.615,1.062,0.615
	c0.625,0,1.113-0.36,1.113-0.955c0-0.625-0.562-0.857-1.336-1.145c-0.933-0.361-1.655-0.774-1.655-1.687
	c0-0.955,0.88-1.463,1.835-1.463c0.986,0,1.622,0.498,1.878,1.356c-0.16,0.076-0.287,0.117-0.424,0.117
	c-0.352,0-0.531-0.266-0.701-0.531c-0.199-0.328-0.432-0.466-0.848-0.466c-0.466,0-0.913,0.255-0.913,0.838
	c0,0.689,0.5,0.934,1.284,1.218L51.009,25.442z M53.923,23.033h0.881v5.494h-0.879v-5.494H53.923z M54.369,22.035
	c-0.338,0-0.582-0.254-0.582-0.562c0-0.317,0.244-0.572,0.586-0.572c0.319,0,0.563,0.255,0.563,0.573
	c0,0.304-0.244,0.559-0.562,0.559L54.369,22.035z M59.614,28.523V24.59c0-0.763-0.488-1.177-1.315-1.177
	c-0.773,0-1.092,0.233-1.092,0.773v4.337h-0.88v-4.612c0-0.308,0.139-0.541,0.415-0.689c0.36-0.181,0.88-0.296,1.602-0.296
	c1.39,0,2.154,0.563,2.154,1.624v3.978h-0.882L59.614,28.523z M63.961,28.002c0.499,0,0.934-0.265,1.231-0.594v-3.254
	c0-0.458-0.338-0.72-0.954-0.72c-0.837,0-1.632,0.762-1.632,2.436c0,1.4,0.541,2.132,1.358,2.132H63.961z M65.194,29.275v-1.302
	c-0.381,0.402-0.869,0.637-1.496,0.637c-1.22,0-1.981-1.114-1.981-2.557c0-2.141,1.335-3.129,2.567-3.129
	c0.647,0,1.147,0.159,1.411,0.338c0.277,0.192,0.384,0.373,0.384,0.753v5.029c0,1.165-0.774,2.089-2.087,2.089
	c-0.785,0-1.593-0.297-1.921-1.112c0.223-0.15,0.383-0.203,0.529-0.203c0.232,0,0.383,0.073,0.616,0.36
	c0.288,0.338,0.52,0.444,0.893,0.444c0.624,0,1.092-0.499,1.092-1.347"/>
<path fill="#E41E2C" d="M17.757,16.632c1.353,0,2.451-1.097,2.451-2.45c0-1.354-1.097-2.451-2.451-2.451
	c-1.353,0-2.451,1.097-2.451,2.451C15.306,15.535,16.403,16.632,17.757,16.632"/>
<path fill="#FFFFFF" d="M10.953,19.005c-0.799,0.545-1.013,1.179-1.013,1.95l0.004,6.216v2.474c0,0.979,0.292,1.424,0.419,1.635
	c0.417,0.7,1,1.281,1.698,1.691l0.052,0.031V22.695l0.063,0.025c1.418,0.578,3.388,0.941,5.573,0.941h0.012
	c3.246-0.002,6.031-0.805,7.208-1.926c0.393-0.373,0.603-0.777,0.603-1.201c0-0.421-0.21-0.825-0.603-1.203
	c-0.392-0.371-0.96-0.709-1.67-0.994c-1.416-0.574-3.377-0.926-5.545-0.926c-0.003-0.001-0.01-0.001-0.017-0.001
	C14.827,17.412,12.304,18.076,10.953,19.005L10.953,19.005z M14.452,20.432c-0.053-0.062-0.069-0.136-0.069-0.185
	c0-0.145,0.109-0.307,0.298-0.398c0.091-0.042,0.186-0.065,0.275-0.065h5.731c0.09,0,0.185,0.02,0.276,0.063
	c0.19,0.091,0.297,0.253,0.296,0.398c0,0.048-0.016,0.12-0.069,0.181c-0.075,0.088-0.204,0.14-0.318,0.14h-6.103
	c-0.113,0-0.238-0.053-0.317-0.14"/>
<path fill="#FFFFFF" d="M12.994,33.556l0.022,0.012c0.772,0.34,1.5,0.564,2.452,0.728l0.041,0.005v-4.97
	c0.549,0.019,0.881,0.451,0.881,0.894v2.694c0,0.562,0.099,1.03,0.267,1.497l0.005,0.021l0.023,0.003
	c0.185,0.02,0.517,0.031,0.887,0.031c0.509,0,1.103-0.022,1.495-0.075l0.043-0.005l-0.014-0.04
	c-0.143-0.425-0.196-0.808-0.196-1.288v-2.485c0-0.749-0.62-1.361-1.373-1.362h-0.015v-0.231c0.776-0.091,1.393-0.703,1.393-1.51
	l-0.002-1.741c0-0.399,0.039-0.8,0.143-1.164l0.014-0.049l-0.051,0.005c-0.231,0.016-0.577,0.024-0.946,0.024
	c-0.542,0-1.132-0.018-1.449-0.049l-0.028-0.002l-0.009,0.028c-0.133,0.418-0.185,0.778-0.185,1.246v1.979
	c0,0.42-0.318,0.878-0.882,0.898v-4.261l-0.03-0.004c-0.954-0.126-1.67-0.278-2.433-0.528l-0.046-0.017L13,33.557L12.994,33.556z"/>
<path fill="#FFFFFF" d="M24.719,23.046c-1.06,0.621-2.584,1.133-4.283,1.354c-0.375,0.049-0.648,0.377-0.647,0.764l-0.005,8.361
	c0,0.347,0.278,0.626,0.625,0.627c0.042,0,0.088-0.006,0.131-0.014c1.333-0.345,2.461-0.861,3.357-1.572
	c0.796-0.667,1.444-1.595,1.444-2.688v-6.465c-0.012-0.229-0.199-0.414-0.432-0.414c-0.072,0-0.137,0.018-0.194,0.047H24.719z
	 M22.324,31.694c-0.034-0.047-0.045-0.098-0.045-0.154l0.001-6.015c0.006-0.164,0.14-0.32,0.341-0.373
	c0.048-0.015,0.096-0.021,0.142-0.021c0.185,0,0.344,0.096,0.386,0.246c0.008,0.026,0.011,0.054,0.011,0.081v0.037l-0.002,5.81
	c0.001,0.136-0.091,0.295-0.25,0.401c-0.105,0.067-0.22,0.104-0.324,0.104c-0.111,0-0.208-0.043-0.262-0.122"/>
<path fill="none" stroke="#FFFFFF" stroke-width="0.5" d="M73.911,15.026v21.231"/>
<path fill="#FFFFFF" d="M86.245,23.619c0.063,0.374,0.199,1.032,0.283,1.323l0.896,3.298c0.229,0.762,0.688,1.139,1.282,1.139
	c0.096,0,0.199-0.014,0.273-0.021l1.921-7.369h-1.232l-0.92,4.08c-0.083,0.438-0.188,1.263-0.208,1.775h-0.146
	c-0.053-0.325-0.23-1.222-0.407-1.783l-0.846-3.017c-0.229-0.772-0.709-1.075-1.209-1.075c-0.083,0-0.23,0.011-0.304,0.02
	l-1.075,4.08c-0.124,0.438-0.249,1.263-0.29,1.754h-0.147c-0.051-0.48-0.208-1.295-0.323-1.762l-0.73-2.985
	c-0.166-0.804-0.729-1.107-1.273-1.107c-0.084,0-0.209,0.011-0.28,0.02l1.648,6.25c0.198,0.762,0.697,1.139,1.24,1.139
	c0.095,0,0.241-0.014,0.314-0.021l1.146-4.416c0.074-0.291,0.198-0.949,0.24-1.323H86.245z M94.906,27.789
	c-0.322,0.491-0.739,0.763-1.333,0.763c-0.931,0-1.463-0.823-1.463-1.699h2.13c0.761,0,1.136-0.365,1.136-1.003
	c0-1.104-0.929-2.024-2.096-2.024c-1.265,0-2.371,0.921-2.371,2.86c0,1.991,1.244,2.774,2.38,2.774c1.033,0,1.712-0.605,1.961-1.503
	L94.906,27.789z M92.101,26.184c0-0.855,0.396-1.721,1.085-1.721c0.585,0,1.033,0.604,1.033,1.305c0,0.28-0.126,0.416-0.458,0.416
	H92.101z M99.767,28.646h-2.473l1.9-3.234c0.28-0.48,0.471-0.897,0.471-1.355v-0.105h-3.538v0.689h2.253l-1.908,3.235
	c-0.388,0.635-0.504,0.979-0.504,1.366v0.116h3.799V28.646z M98.672,21.698c-0.344,0-0.69,0.156-0.875,0.417l-0.701,1.001
	c0.146,0.074,0.272,0.105,0.418,0.105c0.23,0,0.396-0.072,0.604-0.271l1.169-1.127C99.089,21.74,98.902,21.698,98.672,21.698z
	 M109.034,23.771l-0.628,2.607c-0.096,0.405-0.155,1.044-0.188,1.513h-0.125c-0.054-0.405-0.208-1.002-0.313-1.365l-0.542-1.849
	c-0.19-0.634-0.545-0.929-1.005-0.929c-0.05,0-0.186,0.011-0.27,0.023l-0.765,2.607c-0.122,0.417-0.215,1.044-0.248,1.513h-0.126
	c-0.051-0.405-0.168-1.011-0.25-1.365l-0.459-1.825c-0.155-0.639-0.563-0.953-1.115-0.953c-0.093,0-0.24,0.011-0.324,0.023
	l1.243,4.422c0.187,0.668,0.593,1.002,1.064,1.002c0.083,0,0.282-0.01,0.362-0.021l0.742-2.641c0.113-0.386,0.199-0.863,0.24-1.261
	h0.114c0.084,0.468,0.199,0.939,0.302,1.324l0.439,1.596c0.188,0.688,0.614,1.002,1.094,1.002c0.106,0,0.252-0.01,0.304-0.021
	l1.557-5.404H109.034z M115.007,29.175v-7.856h-1.209v7.856H115.007z M120.215,27.609c-0.324,0.491-0.741,0.763-1.339,0.763
	c-0.926,0-1.456-0.825-1.456-1.7h2.127c0.761,0,1.138-0.367,1.138-1.001c0-1.106-0.931-2.028-2.096-2.028
	c-1.268,0-2.369,0.922-2.369,2.862c0,1.993,1.239,2.773,2.376,2.773c1.033,0,1.712-0.605,1.964-1.501L120.215,27.609z
	 M117.408,26.003c0-0.854,0.396-1.721,1.085-1.721c0.585,0,1.031,0.605,1.031,1.302c0,0.285-0.124,0.419-0.459,0.419H117.408z
	 M124.732,27.891c-0.243,0.335-0.564,0.523-0.95,0.523c-0.607,0-1.087-0.575-1.087-1.88c0-1.489,0.606-2.202,1.326-2.202
	c0.417,0,0.711,0.188,0.711,0.563V27.891z M125.951,24.815c0-0.46-0.272-0.73-0.646-0.907c-0.314-0.148-0.761-0.252-1.222-0.252
	c-1.438,0-2.606,1.199-2.606,3.047c0,1.689,0.855,2.557,1.939,2.557c0.615,0,1.012-0.263,1.368-0.722l0.112,0.013l0.033,0.166
	c0.073,0.314,0.228,0.479,0.636,0.479c0.146,0,0.303-0.01,0.386-0.021V24.815z M128.327,24.96c0-0.418,0.314-0.669,0.7-0.669
	c0.345,0,0.532,0.107,0.709,0.386c0.168,0.264,0.367,0.564,0.794,0.564c0.188,0,0.355-0.053,0.553-0.169
	c-0.25-0.947-1.001-1.417-1.971-1.417c-1.002,0-1.891,0.521-1.891,1.493c0,0.854,0.627,1.283,1.744,1.721
	c0.667,0.271,1.148,0.457,1.148,1.011c0,0.45-0.378,0.766-0.908,0.766c-0.524,0-0.782-0.305-0.939-0.557
	c-0.21-0.322-0.438-0.542-0.794-0.542c-0.187,0-0.353,0.053-0.553,0.136c0.262,1.219,1.243,1.617,2.202,1.617
	c1.293,0,2.118-0.72,2.118-1.563c0-0.899-0.646-1.273-1.701-1.684C128.693,25.729,128.327,25.492,128.327,24.96z M133.603,29.175
	v-5.404H132.4v5.404H133.603z M133.707,22.277c0-0.396-0.295-0.697-0.698-0.697c-0.408,0-0.71,0.301-0.71,0.697
	c0,0.398,0.302,0.702,0.71,0.702C133.412,22.979,133.707,22.676,133.707,22.277z M139.372,29.175v-3.869
	c0-1.066-0.784-1.64-2.232-1.64c-0.742,0-1.264,0.114-1.598,0.293c-0.355,0.167-0.5,0.374-0.5,0.749v4.467h1.21v-4.183
	c0-0.45,0.239-0.667,0.846-0.667c0.687,0,1.065,0.376,1.065,1.021v3.829H139.372z M143.825,29.946c0,0.804-0.399,1.138-0.825,1.138
	c-0.345,0-0.534-0.136-0.805-0.448c-0.227-0.262-0.406-0.366-0.698-0.366c-0.197,0-0.428,0.095-0.667,0.261
	c0.343,0.867,1.167,1.22,2.033,1.22c1.335,0,2.182-0.843,2.182-2.138v-4.81c0-0.375-0.137-0.594-0.438-0.792
	c-0.271-0.188-0.781-0.344-1.45-0.344c-1.284,0-2.62,0.971-2.62,3.098c0,1.452,0.764,2.496,2.016,2.496
	c0.521,0,0.948-0.179,1.273-0.472V29.946z M141.749,26.546c0-1.493,0.666-2.182,1.366-2.182c0.458,0,0.71,0.201,0.71,0.565v3.122
	c-0.241,0.238-0.584,0.434-0.973,0.434C142.176,28.484,141.749,27.873,141.749,26.546z"/>
</svg>
