<?xml version="1.0" standalone="no"?>
<!DOCTYPE svg PUBLIC "-//W3C//DTD SVG 20010904//EN"
 "http://www.w3.org/TR/2001/REC-SVG-20010904/DTD/svg10.dtd">
<svg version="1.0" xmlns="http://www.w3.org/2000/svg"
 width="512.000000pt" height="512.000000pt" viewBox="0 0 512.000000 512.000000"
 preserveAspectRatio="xMidYMid meet">

<g transform="translate(0.000000,512.000000) scale(0.100000,-0.100000)"
fill="#666666" stroke="none">
<path d="M3535 4786 c-16 -8 -510 -495 -1097 -1083 -1160 -1162 -1091 -1085
-1073 -1180 6 -34 124 -155 1083 -1115 1171 -1171 1094 -1101 1189 -1083 49 9
109 69 118 118 18 94 81 25 -1008 1115 l-1002 1002 1002 1003 c891 891 1002
1006 1008 1040 24 133 -101 237 -220 183z"/>
</g>
</svg>
