<?xml version="1.0" standalone="no"?>
<!DOCTYPE svg PUBLIC "-//W3C//DTD SVG 20010904//EN"
 "http://www.w3.org/TR/2001/REC-SVG-20010904/DTD/svg10.dtd">
<svg version="1.0" xmlns="http://www.w3.org/2000/svg"
 width="512.000000pt" height="512.000000pt" viewBox="0 0 512.000000 512.000000"
 preserveAspectRatio="xMidYMid meet">
<metadata>
Created by potrace 1.16, written by Peter Selinger 2001-2019
</metadata>
<g transform="translate(0.000000,512.000000) scale(0.100000,-0.100000)"
fill="#000000" stroke="none">
<path d="M1924 5100 c-491 -74 -911 -287 -1264 -640 -299 -299 -494 -640 -596
-1043 -86 -340 -86 -764 0 -1104 228 -898 982 -1569 1899 -1688 152 -19 432
-19 584 0 381 50 752 200 1055 427 l91 69 546 -545 c377 -376 558 -550 583
-561 77 -32 177 -15 236 39 59 53 80 163 47 244 -11 25 -185 206 -561 583
l-545 546 69 91 c227 303 377 674 427 1055 19 152 19 432 0 584 -119 917 -790
1671 -1688 1899 -258 66 -621 84 -883 44z m616 -426 c658 -105 1216 -569 1441
-1199 70 -197 102 -391 102 -610 0 -172 -13 -282 -54 -445 -82 -327 -237 -600
-483 -846 -246 -246 -519 -401 -846 -483 -163 -41 -273 -54 -445 -54 -280 0
-521 53 -778 171 -372 172 -708 510 -881 884 -119 259 -169 487 -169 773 0
241 28 400 110 630 153 426 492 804 908 1012 197 99 461 171 685 187 92 6 309
-4 410 -20z"/>
</g>
</svg>
