<?xml version="1.0" standalone="no"?>
<!DOCTYPE svg PUBLIC "-//W3C//DTD SVG 20010904//EN"
 "http://www.w3.org/TR/2001/REC-SVG-20010904/DTD/svg10.dtd">
<svg version="1.0" xmlns="http://www.w3.org/2000/svg"
 width="512.000000pt" height="512.000000pt" viewBox="0 0 512.000000 512.000000"
 preserveAspectRatio="xMidYMid meet">

<g transform="translate(0.000000,512.000000) scale(0.100000,-0.100000)"
fill="#000000" stroke="none">
<path d="M3480 5104 c-270 -32 -491 -112 -702 -253 -337 -226 -563 -569 -644
-976 -25 -125 -25 -414 -1 -539 25 -124 65 -247 90 -273 28 -32 80 -31 112 2
31 30 31 38 0 139 -81 269 -79 554 5 816 87 269 285 531 524 692 164 110 338
181 521 213 117 21 342 21 460 0 417 -73 778 -344 970 -726 96 -193 138 -371
138 -594 1 -354 -124 -668 -367 -922 -196 -205 -429 -335 -706 -394 -137 -29
-371 -31 -504 -5 -186 36 -336 96 -489 195 -52 34 -103 61 -114 61 -10 0 -127
-38 -258 -85 -131 -46 -240 -83 -242 -82 -1 2 45 110 102 241 58 131 105 244
105 252 0 43 -44 84 -90 84 -40 0 -69 -49 -186 -315 -126 -287 -136 -325 -100
-380 24 -37 75 -65 117 -65 29 0 246 72 485 160 l51 19 44 -30 c130 -88 332
-170 519 -210 150 -33 439 -33 586 -1 298 65 536 188 743 387 237 228 378 481
441 794 164 813 -373 1614 -1189 1771 -102 20 -342 33 -421 24z"/>
<path d="M3487 4209 c-83 -20 -173 -89 -197 -154 -25 -66 13 -125 81 -125 24
0 40 10 68 40 45 49 95 70 163 70 109 -1 178 -56 178 -143 0 -76 -30 -128
-117 -200 -96 -80 -130 -134 -150 -235 -17 -85 -12 -141 13 -167 20 -20 107
-20 127 -1 8 8 17 46 21 88 4 40 14 88 22 106 8 19 59 78 113 131 122 118 153
175 159 292 3 60 0 86 -15 120 -40 89 -112 147 -215 175 -58 15 -192 17 -251
3z"/>
<path d="M599 3767 c-77 -32 -98 -49 -225 -179 -205 -208 -319 -430 -360 -698
-35 -236 -3 -461 101 -706 353 -824 978 -1504 1767 -1918 236 -124 421 -198
580 -232 116 -25 353 -25 468 -1 266 57 452 159 662 367 164 162 183 198 183
350 0 97 -2 110 -31 170 -17 36 -50 84 -74 108 -38 38 -590 377 -727 446 -75
37 -176 53 -253 38 -109 -20 -164 -53 -281 -168 l-107 -106 -41 7 c-98 16
-149 -96 -67 -146 40 -24 134 -26 179 -3 18 10 79 63 137 119 59 58 123 110
145 120 46 19 146 22 189 6 15 -6 176 -99 357 -207 342 -204 388 -239 408
-311 29 -105 3 -172 -112 -290 -183 -189 -373 -295 -603 -339 -120 -22 -356
-15 -464 15 -97 26 -241 86 -405 168 -783 391 -1421 1070 -1758 1870 -110 260
-130 489 -66 738 27 102 114 281 177 365 80 104 242 256 288 269 85 24 166 8
224 -45 25 -23 107 -150 234 -363 108 -181 200 -341 206 -356 17 -45 12 -145
-11 -194 -11 -26 -61 -87 -118 -145 -54 -56 -106 -115 -115 -133 -28 -56 -21
-130 22 -225 101 -217 248 -425 431 -608 170 -170 399 -340 457 -340 39 0 74
37 74 79 0 46 -10 59 -85 106 -231 145 -466 383 -615 624 -60 97 -140 255
-140 277 0 10 46 65 103 123 115 118 148 175 167 284 14 81 3 162 -34 242 -13
29 -108 194 -211 367 -207 345 -248 398 -349 445 -51 23 -77 28 -156 31 -81 2
-103 -1 -151 -21z"/>
<path d="M3538 3135 c-54 -30 -74 -114 -43 -175 31 -61 112 -70 169 -19 43 37
54 81 33 132 -26 62 -104 93 -159 62z"/>
</g>
</svg>
