<?xml version="1.0" standalone="no"?>
<!DOCTYPE svg PUBLIC "-//W3C//DTD SVG 20010904//EN"
 "http://www.w3.org/TR/2001/REC-SVG-20010904/DTD/svg10.dtd">
<svg version="1.0" xmlns="http://www.w3.org/2000/svg"
 width="512.000000pt" height="512.000000pt" viewBox="0 0 512.000000 512.000000"
 preserveAspectRatio="xMidYMid meet">

<g transform="translate(0.000000,512.000000) scale(0.100000,-0.100000)"
fill="#000000" stroke="none">
<path d="M2526 4949 c-267 -35 -531 -165 -727 -359 -235 -233 -379 -561 -379
-866 0 -77 2 -84 26 -103 35 -27 66 -27 99 2 25 21 27 31 36 137 12 151 48
281 114 415 64 131 126 215 232 316 448 427 1153 408 1579 -43 202 -214 306
-474 306 -768 0 -294 -104 -554 -306 -768 -442 -468 -1175 -468 -1622 -1 -116
122 -203 268 -259 437 -24 73 -31 86 -58 97 -73 30 -125 -28 -102 -115 54
-204 190 -429 351 -579 511 -478 1291 -465 1784 29 186 186 310 422 356 679
20 111 20 331 0 442 -46 257 -169 492 -356 680 -283 284 -676 419 -1074 368z"/>
<path d="M3815 4935 c-45 -44 -35 -74 56 -172 275 -298 420 -672 420 -1083 0
-260 -51 -479 -161 -701 -49 -97 -135 -239 -146 -239 -3 0 -2 15 1 34 17 85
-77 143 -134 83 -19 -21 -23 -42 -35 -193 -13 -177 -9 -216 25 -234 17 -10
194 -27 323 -32 53 -2 61 0 82 25 30 35 30 68 1 102 -20 24 -32 27 -105 32
-45 3 -82 7 -82 9 0 2 27 40 60 84 191 258 308 583 329 910 29 469 -112 899
-412 1257 -43 50 -91 103 -108 117 -39 33 -82 34 -114 1z"/>
<path d="M2646 4539 c-24 -19 -26 -27 -26 -89 l0 -68 -46 -16 c-147 -50 -249
-176 -270 -333 -14 -108 41 -250 128 -328 79 -71 131 -90 300 -110 67 -9 136
-57 168 -120 80 -156 -30 -338 -205 -338 -117 0 -211 81 -230 198 -12 77 -16
85 -45 100 -38 19 -74 11 -101 -24 -18 -22 -20 -35 -15 -78 18 -159 122 -289
270 -339 l46 -16 0 -68 c0 -62 2 -70 26 -89 34 -27 66 -27 99 2 22 18 27 34
33 90 l7 68 56 23 c222 90 314 356 193 561 -37 65 -125 140 -189 164 -30 12
-93 25 -140 30 -46 6 -98 17 -114 26 -83 42 -141 151 -127 237 19 119 114 201
231 201 120 0 214 -83 230 -204 9 -60 23 -86 54 -99 35 -14 74 0 97 35 33 50
-6 196 -76 284 -40 52 -93 90 -159 117 l-56 23 -7 68 c-6 56 -11 72 -33 91
-33 28 -65 28 -99 1z"/>
<path d="M185 2105 l-25 -24 0 -806 0 -806 25 -24 24 -25 441 0 441 0 24 25
c22 21 25 33 25 101 0 58 3 75 13 71 95 -36 1642 -457 1681 -457 23 0 648 280
668 299 46 45 12 131 -52 131 -18 0 -156 -56 -323 -131 -247 -110 -297 -130
-327 -125 -91 14 -1299 344 -1610 439 l-45 14 0 458 0 458 390 132 390 132
405 -122 c223 -67 428 -134 456 -148 106 -54 203 -194 207 -301 2 -36 -1 -41
-53 -77 -132 -92 -338 -134 -532 -108 -110 15 -141 12 -164 -19 -21 -27 -17
-76 9 -100 60 -56 342 -65 532 -17 82 21 229 95 293 148 53 44 57 45 724 241
629 186 676 198 737 194 36 -2 83 -12 103 -22 89 -43 158 -153 158 -251 0
-100 -69 -205 -165 -253 -22 -11 -245 -110 -495 -222 -250 -111 -463 -209
-473 -218 -43 -38 -5 -132 55 -132 26 0 956 409 1033 455 24 13 63 47 88 75
198 220 134 557 -131 687 -66 33 -85 38 -167 41 l-92 4 -639 -187 c-351 -103
-643 -189 -649 -191 -5 -2 -20 29 -32 69 -41 134 -143 257 -270 325 -56 29
-902 292 -942 292 -9 0 -189 -58 -399 -130 l-382 -130 0 106 c0 98 -2 107 -25
129 l-24 25 -441 0 -441 0 -24 -25z m795 -830 l0 -695 -330 0 -330 0 0 695 0
695 330 0 330 0 0 -695z"/>
<path d="M519 1791 c-31 -25 -32 -83 -1 -114 21 -20 32 -22 132 -22 100 0 111
2 132 22 31 31 30 89 -1 114 -34 28 -228 28 -262 0z"/>
</g>
</svg>
