<?xml version="1.0" encoding="utf-8"?>
<!-- Generator: Adobe Illustrator 16.0.0, SVG Export Plug-In . SVG Version: 6.00 Build 0)  -->
<!DOCTYPE svg PUBLIC "-//W3C//DTD SVG 1.1//EN" "http://www.w3.org/Graphics/SVG/1.1/DTD/svg11.dtd">
<svg version="1.1" id="Warstwa_2" xmlns="http://www.w3.org/2000/svg" xmlns:xlink="http://www.w3.org/1999/xlink" x="0px" y="0px"
	 width="70px" height="120px" viewBox="0 0 70 120" enable-background="new 0 0 70 120" xml:space="preserve">
<g>
	
		<rect x="6.353" y="4.882" fill="none" stroke="#e5e5e5" stroke-width="0.8163" stroke-miterlimit="10" width="8.15" height="8.266"/>
	
		<rect x="17.473" y="4.951" fill="none" stroke="#e5e5e5" stroke-width="0.8163" stroke-miterlimit="10" width="8.151" height="8.173"/>
	
		<rect x="6.353" y="15.799" fill="none" stroke="#e5e5e5" stroke-width="0.8163" stroke-miterlimit="10" width="8.15" height="8.174"/>
	
		<rect x="17.473" y="15.954" fill="none" stroke="#e5e5e5" stroke-width="0.8163" stroke-miterlimit="10" width="8.151" height="8.173"/>
</g>
<g >
	
		<rect x="6.379" y="34.491" fill="none" stroke="#1D1D1A" stroke-width="0.8209" stroke-miterlimit="10" width="8.15" height="8.266"/>
	
		<rect x="17.5" y="34.56" fill="none" stroke="#1D1D1A" stroke-width="0.8163" stroke-miterlimit="10" width="8.151" height="8.173"/>
	
		<rect x="6.379" y="45.408" fill="none" stroke="#1D1D1A" stroke-width="0.8163" stroke-miterlimit="10" width="8.15" height="8.174"/>
	
		<rect x="17.5" y="45.563" fill="none" stroke="#1D1D1A" stroke-width="0.8163" stroke-miterlimit="10" width="8.151" height="8.173"/>
</g>
<g>
	<g>
		
			<rect x="45.413" y="34.417" fill="none" stroke="#1D1D1A" stroke-width="0.8209" stroke-miterlimit="10" width="4.518" height="4.528"/>
		<path fill="none" stroke="#1D1D1A" stroke-width="0.8209" stroke-miterlimit="10" d="M51.25,36.681c12.813,0,12.813,0,12.813,0"/>
	</g>
	<g>
		
			<rect x="45.351" y="41.917" fill="none" stroke="#1D1D1A" stroke-width="0.8209" stroke-miterlimit="10" width="4.518" height="4.528"/>
		<path fill="none" stroke="#1D1D1A" stroke-width="0.8209" stroke-miterlimit="10" d="M51.188,44.181c12.813,0,12.813,0,12.813,0"
			/>
	</g>
	<g>
		
			<rect x="45.288" y="49.167" fill="none" stroke="#1D1D1A" stroke-width="0.8209" stroke-miterlimit="10" width="4.518" height="4.528"/>
		<path fill="none" stroke="#1D1D1A" stroke-width="0.8209" stroke-miterlimit="10" d="M51.125,51.431c12.813,0,12.813,0,12.813,0"
			/>
	</g>
</g>
<g>
	<g>
		
			<rect x="45.039" y="4.865" fill="none" stroke="#e5e5e5" stroke-width="0.8163" stroke-miterlimit="10" width="4.518" height="4.528"/>
		<path fill="none" stroke="#e5e5e5" stroke-width="0.8163" stroke-miterlimit="10" d="M50.876,7.129c12.813,0,12.813,0,12.813,0"/>
	</g>
	<g>
		
			<rect x="44.977" y="12.365" fill="none" stroke="#e5e5e5" stroke-width="0.8163" stroke-miterlimit="10" width="4.518" height="4.528"/>
		<path fill="none" stroke="#e5e5e5" stroke-width="0.8163" stroke-miterlimit="10" d="M50.813,14.629c12.813,0,12.813,0,12.813,0"
			/>
	</g>
	<g>
		
			<rect x="44.914" y="19.614" fill="none" stroke="#e5e5e5" stroke-width="0.8163" stroke-miterlimit="10" width="4.518" height="4.529"/>
		<path fill="none" stroke="#e5e5e5" stroke-width="0.8163" stroke-miterlimit="10" d="M50.751,21.879c12.813,0,12.813,0,12.813,0"
			/>
	</g>
</g>
<rect x="6.335" y="72.373" fill="none" stroke="#1D1D1B" stroke-width="0.8082" stroke-miterlimit="10" width="12.25" height="12.253"/>
<g>
	<path d="M12.904,75.259v2.818h2.71v0.72h-2.71v2.843h-0.768v-2.843H9.426v-0.72h2.711v-2.818H12.904z"/>
</g>
<rect x="6.344" y="101.298" fill="none" stroke="#1D1D1B" stroke-width="0.8082" stroke-miterlimit="10" width="12.25" height="12.253"/>
<g>
	<path d="M14.968,107.041v0.779H10.03v-0.779H14.968z"/>
</g>
</svg>
