<svg id="Layer_1" data-name="Layer 1" xmlns="http://www.w3.org/2000/svg" viewBox="0 0 149.42 31.6"><defs><style>.cls-1{fill:#1a1a1a;}</style></defs><path class="cls-1" d="M16.52,20.3H7.35L5.18,26h-5L9.73,1.5H11.9A3,3,0,0,1,15,3.6L23.7,26h-5ZM8.64,16.23h6.58L12,7.42h0Z" transform="translate(-0.14 -1.5)"/><path class="cls-1" d="M26.32,24.41a7.09,7.09,0,0,1-1.68-4.92V8.54H29.4v11A2.86,2.86,0,0,0,30,21.43a1.84,1.84,0,0,0,1.52.72h2a2.89,2.89,0,0,0,2.1-1A5.37,5.37,0,0,0,37,18.65V8.54h4.76V26H37.31V23.76a6.61,6.61,0,0,1-2,1.82,4.36,4.36,0,0,1-2.25.7H30.77A5.68,5.68,0,0,1,26.32,24.41Z" transform="translate(-0.14 -1.5)"/><path class="cls-1" d="M48.23,24.6a5.81,5.81,0,0,1-1.44-4.34V12.6H43.71V8.54h3.22V3.25h4.62V8.54H56.1V12.6H51.55v7.45a2.29,2.29,0,0,0,.37,1.43,1.41,1.41,0,0,0,1.17.46h3V26H52.75A6.29,6.29,0,0,1,48.23,24.6Z" transform="translate(-0.14 -1.5)"/><path class="cls-1" d="M61.09,25.42A6.16,6.16,0,0,1,58.47,23a7,7,0,0,1-.93-3.64v-4.1a6.92,6.92,0,0,1,1-3.65,6.42,6.42,0,0,1,2.64-2.47A8.43,8.43,0,0,1,65,8.25h3.15a8.43,8.43,0,0,1,3.9.88,6.42,6.42,0,0,1,2.64,2.47,7,7,0,0,1,1,3.65v4.1a6.93,6.93,0,0,1-1,3.64,6.33,6.33,0,0,1-2.64,2.43,8.63,8.63,0,0,1-3.94.86H65A8.59,8.59,0,0,1,61.09,25.42Zm7-3.23a2.57,2.57,0,0,0,2.06-.9A3.44,3.44,0,0,0,70.91,19v-3.4a3.46,3.46,0,0,0-.77-2.33,2.56,2.56,0,0,0-2-.89h-3a2.56,2.56,0,0,0-2,.89,3.46,3.46,0,0,0-.77,2.33V19a3.44,3.44,0,0,0,.77,2.32,2.5,2.5,0,0,0,2,.9Z" transform="translate(-0.14 -1.5)"/><path class="cls-1" d="M80.5,31.51a5.93,5.93,0,0,1-2.07-4.18h4.69a1.79,1.79,0,0,0,.63,1.24,2.1,2.1,0,0,0,1.41.48H88.3a2.11,2.11,0,0,0,1.77-.9,3.68,3.68,0,0,0,.68-2.32V24.18a5.09,5.09,0,0,1-1.69,1.22,4.52,4.52,0,0,1-1.91.46H84.74A7,7,0,0,1,79.61,24a6.61,6.61,0,0,1-1.94-5V15.43a7.53,7.53,0,0,1,.91-3.76,6.19,6.19,0,0,1,2.55-2.52,7.77,7.77,0,0,1,3.78-.9h2a5.29,5.29,0,0,1,2.33.56,5.09,5.09,0,0,1,1.83,1.48V8.54h4.41V25.83a7.83,7.83,0,0,1-.89,3.81,6.18,6.18,0,0,1-2.54,2.55,7.61,7.61,0,0,1-3.78.91H85.16A6.91,6.91,0,0,1,80.5,31.51Zm7-9.67a2.81,2.81,0,0,0,2.25-1.11,5,5,0,0,0,1-2.88V15.43a3.62,3.62,0,0,0-.94-2.24,2.69,2.69,0,0,0-2-.84H85.33a2.66,2.66,0,0,0-2.1.94,3.69,3.69,0,0,0-.81,2.49v2.87A3.46,3.46,0,0,0,83.16,21a2.37,2.37,0,0,0,1.89.88Z" transform="translate(-0.14 -1.5)"/><path class="cls-1" d="M101.8,25.46a6.33,6.33,0,0,1-2.64-2.31,6.15,6.15,0,0,1-1-3.42V15.22a6.84,6.84,0,0,1,1-3.64,6.44,6.44,0,0,1,2.64-2.45,8.43,8.43,0,0,1,3.9-.88h2.8a7.59,7.59,0,0,1,5.39,1.89,6.58,6.58,0,0,1,2,5v3.7H103v.84a2.41,2.41,0,0,0,.74,1.86,2.75,2.75,0,0,0,2,.7h2.73a3.32,3.32,0,0,0,2-.54,1.68,1.68,0,0,0,.75-1.42h4.69a5.29,5.29,0,0,1-.94,3.11,6.15,6.15,0,0,1-2.65,2.11,9.72,9.72,0,0,1-3.9.73H105.7A8.8,8.8,0,0,1,101.8,25.46Zm9.43-10v-.27A3.15,3.15,0,0,0,110.5,13a2.52,2.52,0,0,0-2-.83H105.7a2.58,2.58,0,0,0-2,.88,3.37,3.37,0,0,0-.77,2.31v.1Z" transform="translate(-0.14 -1.5)"/><path class="cls-1" d="M119.59,24.92a4.43,4.43,0,0,1-1.68-3.61V20a4.3,4.3,0,0,1,1.75-3.56,7.37,7.37,0,0,1,4.62-1.34h2.14a8.8,8.8,0,0,1,2,.24,9.62,9.62,0,0,1,1.92.66V14.21a1.86,1.86,0,0,0-.57-1.42,2.17,2.17,0,0,0-1.53-.54h-3a2.54,2.54,0,0,0-1.57.45,1.45,1.45,0,0,0-.6,1.22H118.4a5.09,5.09,0,0,1,1.88-4.11,7.39,7.39,0,0,1,4.91-1.56h3a7.36,7.36,0,0,1,5,1.63,5.44,5.44,0,0,1,1.89,4.33V26h-4.41V23.9a6.27,6.27,0,0,1-2.06,1.73,5.17,5.17,0,0,1-2.42.65H124A6.77,6.77,0,0,1,119.59,24.92Zm6.93-2.28a4.11,4.11,0,0,0,2.31-.66,3.79,3.79,0,0,0,1.47-1.79V19.6a4.06,4.06,0,0,0-1.55-.67,9.06,9.06,0,0,0-2.12-.24h-2.21a2.16,2.16,0,0,0-1.36.41,1.39,1.39,0,0,0-.53,1.13v.91a1.3,1.3,0,0,0,.58,1.08,2.53,2.53,0,0,0,1.52.42Z" transform="translate(-0.14 -1.5)"/><path class="cls-1" d="M138.25,8.54h4.41v2.23a5,5,0,0,1,1.91-1.66,5.57,5.57,0,0,1,2.6-.65h2.38V12.6h-2.38a4.13,4.13,0,0,0-3,1.11A3.81,3.81,0,0,0,143,16.59V26h-4.76Z" transform="translate(-0.14 -1.5)"/></svg>