<svg xmlns="http://www.w3.org/2000/svg" width="62px" height="30px" viewBox="0 0 841.89 412.245">
  <path fill="#EC631C" d="M181.213 132.896c23.641 0 45.827 10.547 55.647 29.46 14.549-18.913 37.098-29.46 60.74-29.46 20.73 0 37.461 7.274 48.736 19.641 12.366 13.458 17.822 31.278 17.822 59.648V322.75c0 4-1.818 5.819-6.547 5.819h-30.914c-4.365 0-6.184-1.819-6.184-5.819v-96.382c0-26.55-1.454-36.371-8.365-44.373-5.456-6.546-15.276-9.457-26.551-9.457-8.728 0-20.004 2.911-27.277 8.002-7.274 5.09-9.457 10.183-10.548 21.458-.727 9.092-.363 24.369-.363 40.737v80.014c0 4-1.818 5.819-6.183 5.819h-31.279c-4.365 0-6.184-1.819-6.184-5.819v-96.382c0-26.55-1.455-36.371-8.365-44.373-5.456-6.546-15.276-9.457-26.551-9.457-8.729 0-20.004 2.546-27.277 8.002-6.546 4.364-9.457 10.183-10.184 21.458-.727 9.092-.727 24.369-.727 40.737v80.014c0 4-1.818 5.819-6.183 5.819h-31.28c-4.364 0-6.183-1.819-6.183-5.819v-113.84c0-30.552-1.818-61.103-1.818-66.559 0-4.001 1.818-5.819 6.183-5.819h28.006c4.728 0 6.183 1.454 6.91 5.455.727 3.638 1.455 9.457 1.818 14.912 12.366-13.817 31.642-24.001 53.101-24.001zM538.262 404.355c-4.366-1.817-5.453-4.368-4.366-9.094l3.643-18.188c1.088-4.723 2.904-6.54 9.09-5.447 5.819 1.087 14.549 1.813 18.543 1.813 21.827 0 29.103-10.912 29.103-42.546V138.86c0-4.005 1.816-5.817 6.183-5.817h31.277c4.362 0 6.182 1.812 6.182 5.817v184.027c0 33.1-6.182 54.915-17.821 68.372-11.64 13.096-29.1 18.552-49.46 18.552-12.006 0-24.738-2.18-32.374-5.456"/>
  <path fill="#61A6DA" d="M43.14 328.572H8.176c-2.114 0-3.845-1.73-3.845-3.843V195.341c0-2.113 1.731-3.849 3.845-3.849H43.14c2.118 0 3.845 1.735 3.845 3.849v129.388c-.001 2.112-1.727 3.843-3.845 3.843M43.251 171.971H8.287c-2.114 0-3.845-1.729-3.845-3.844v-28.712c0-2.116 1.731-3.847 3.845-3.847h34.964c2.116 0 3.844 1.731 3.844 3.847v28.712c.001 2.115-1.727 3.844-3.844 3.844"/>
  <path fill="#EC631C" d="M665.382 235.459c0-61.831 36.372-102.566 89.474-102.566 54.191 0 82.197 41.463 82.197 97.837 0 14.186-2.544 17.822-7.637 17.822H710.847c4.002 30.551 20.368 45.825 52.738 45.825 14.912 0 33.096-4.728 48.009-11.273 4.729-2.184 7.637-.728 9.456 3.636l7.273 17.822c1.819 5.091 1.456 8.002-3.271 10.547-17.821 10.184-41.827 17.094-67.65 17.094-62.558.001-92.02-41.098-92.02-96.744zm45.828-19.641h81.835c-.728-24.005-14.186-45.462-38.189-45.462-25.096 0-40.007 18.912-43.646 45.462zM388.961 236.551c0-66.922 33.824-103.658 92.381-103.658 54.921 0 85.836 35.279 85.836 95.655 0 66.922-33.826 103.655-92.382 103.655-54.92.001-85.835-35.279-85.835-95.652zm133.117-5.456c0-34.553-11.274-60.376-41.826-60.376-29.097 0-46.191 21.46-46.191 63.286 0 34.551 11.274 60.374 41.827 60.374 29.095-.001 46.19-21.458 46.19-63.284z"/>
  <g>
    <path fill="#EC631C" d="M634.069 169.442h-56.678c-2.116 0-3.845-1.728-3.845-3.845v-28.712c0-2.116 1.729-3.846 3.845-3.846h56.678c2.115 0 3.846 1.73 3.846 3.846v28.712c0 2.117-1.73 3.845-3.846 3.845"/>
  </g>
  <g>
    <path d="M31.691 29.705c5.967 0 11.066 2.169 14.539 5.642 5.316 5.208 7.919 13.345 7.919 22.35 0 21.374-12.042 31.355-25.17 31.355-4.991 0-10.307-1.844-13.67-4.124v27.774c0 1.086-.542 1.627-1.627 1.627H9.016c-1.084 0-1.627-.542-1.627-1.627V53.791c0-8.354-.108-15.84-.325-21.482 0-.976.542-1.519 1.628-1.519h4.339c1.193 0 1.736.434 1.844 1.519.108.977.434 4.014.434 5.316 3.689-4.666 9.547-7.92 16.382-7.92zm-.651 7.92c-4.881 0-9.221 1.627-12.042 4.34-3.039 2.929-3.69 6.509-3.69 18.878v16.708c3.146 2.387 8.029 4.231 13.128 4.231 10.523 0 17.359-9.331 17.359-23.218 0-14.538-5.208-20.939-14.755-20.939zM83.121 75.707c0 4.773.433 6.292 4.231 6.292 1.085 0 1.519.325 1.519 1.411v2.169c0 1.193-.217 1.52-1.085 1.844-.759.326-2.495.651-4.014.651-3.581 0-6.076-1.519-7.27-3.797-1.085-1.953-1.302-4.991-1.302-10.633V57.696l-6.943 5.642c-.651.542-1.302.325-1.302-.543v-5.208c0-1.084.216-1.627 1.085-2.278l7.16-5.858V31.766c0-19.311-.759-23.651-.759-25.604 0-.977.325-1.519 1.41-1.519h4.882c.977 0 1.411.325 1.519 1.193.434 3.363.869 12.694.869 27.341v9.764l9.004-7.377c.651-.542 1.302-.326 1.302.542v5.208c0 1.085-.218 1.627-1.085 2.279l-9.222 7.595v24.519zM144.422 79.612c-3.472 6.076-9.657 9.548-17.034 9.548-16.491 0-23.327-13.996-23.327-28.751 0-19.095 11.067-30.704 24.628-30.704 6.293 0 12.042 2.82 15.623 7.269.109-1.41.326-4.124.542-4.991.217-.977.76-1.193 1.627-1.193h3.905c1.302 0 1.627.434 1.627 1.411-.325 5.858-.542 12.368-.542 17.793v13.345c0 7.92.65 17.359 1.628 23.108.216 1.085-.11 1.627-1.412 1.627h-4.123c-1.193 0-1.736-.433-1.953-1.411-.43-1.735-.972-4.339-1.189-7.051zm-4.883-2.929c2.496-3.147 4.014-7.919 4.014-14.43V44.46c-2.603-4.123-8.679-7.595-14.212-7.595-12.043 0-16.925 11.175-16.925 22.892 0 12.694 4.99 22.242 15.949 22.242 4.122 0 8.462-1.844 11.174-5.316zM170.789 60.409c0-20.396 11.934-30.704 26.038-30.704 6.292 0 12.043 1.736 17.25 5.1.977.65.977 1.301.434 2.386l-1.736 3.472c-.65 1.194-1.626 1.085-2.495.542-4.774-2.82-8.68-4.123-13.345-4.123-10.524 0-17.792 8.462-17.792 22.784 0 14.104 7.485 21.916 17.684 21.916 4.557 0 9.331-1.411 13.562-3.472 1.302-.651 1.953-.326 2.386.759l1.194 3.254c.434 1.086.325 1.845-.651 2.387-5.099 2.821-10.958 4.449-17.576 4.449-14.863.001-24.953-11.283-24.953-28.75zM261.276 98.707c0 3.472 2.386 4.882 5.641 4.882 1.084 0 2.82-.217 4.339-.542.869-.217 1.303 0 1.411.868l.542 3.255c.108.977 0 1.303-.976 1.628-1.953.651-4.557 1.085-7.161 1.085-8.354 0-11.5-5.1-11.5-9.005 0-4.991 2.496-9.114 6.618-12.151-2.061.325-4.122.434-6.292.434-17.792 0-26.147-11.067-26.147-28.208 0-18.335 10.09-31.246 25.93-31.246 15.406 0 22.892 12.585 22.892 29.293 0 2.387-.65 3.363-1.844 3.363h-38.623c.217 13.237 6.835 19.421 19.528 19.421 4.123 0 9.004-.977 14.212-3.472.978-.435 1.627-.326 2.063.651l1.409 3.363c.435 1.086.218 1.519-.867 2.278-8.029 5.423-11.175 9.438-11.175 14.103zm-24.953-43.289h32.114c0-8.572-4.449-18.335-14.647-18.335-9.982 0-15.948 6.834-17.467 18.335zM324.751 60.843c0-20.831 11.067-31.138 26.69-31.138 17.032 0 24.41 12.368 24.41 28.316 0 20.831-11.067 31.138-26.689 31.138-17.034.001-24.411-12.368-24.411-28.316zm42.746-1.953c0-9.548-3.146-22.024-16.49-22.024-8.788 0-17.901 5.967-17.901 23.109 0 9.547 3.146 22.024 16.492 22.024 8.787 0 17.899-5.967 17.899-23.109zM420.988 29.705c6.075 0 11.717 2.061 15.515 5.75 4.015 4.014 5.532 9.765 5.532 18.77v32.331c0 .977-.542 1.519-1.627 1.519h-4.665c-1.085 0-1.627-.542-1.627-1.519V58.89c0-9.221-.217-13.996-3.255-17.468-2.279-2.604-6.185-3.905-11.392-3.905-4.775 0-10.2 1.736-13.02 4.665-1.735 1.953-2.496 4.34-2.82 8.354-.326 3.797-.435 9.331-.435 16.383v19.636c0 .977-.542 1.519-1.627 1.519h-4.665c-1.085 0-1.627-.542-1.627-1.519V53.791c0-8.354-.109-15.84-.326-21.482 0-.976.542-1.519 1.628-1.519h4.34c1.193 0 1.736.434 1.844 1.519.109.977.326 3.689.326 4.992 3.797-4.342 10.85-7.596 17.901-7.596zM471.333 75.707c0 4.773.435 6.292 4.232 6.292 1.085 0 1.519.325 1.519 1.411v2.169c0 1.193-.217 1.52-1.085 1.844-.759.326-2.494.651-4.015.651-3.579 0-6.075-1.519-7.268-3.797-1.085-1.953-1.303-4.991-1.303-10.633V32.092c0-19.313-.65-23.652-.65-25.605 0-.977.325-1.519 1.409-1.519h4.883c.978 0 1.41.326 1.52 1.194.434 3.363.758 12.693.758 27.34v42.205zM494.553 18.855c-1.085 0-1.627-.542-1.627-1.52V9.634c0-.977.542-1.519 1.627-1.519h7.377c1.194 0 1.735.542 1.735 1.519v7.702c0 .978-.541 1.52-1.735 1.52h-7.377zm1.411 69.219c-1.086 0-1.628-.542-1.628-1.519V32.309c0-.976.542-1.519 1.628-1.519h4.664c1.085 0 1.628.543 1.628 1.519v54.247c0 .977-.543 1.519-1.628 1.519h-4.664zM550.536 29.705c6.074 0 11.716 2.061 15.515 5.75 4.013 4.014 5.532 9.765 5.532 18.77v32.331c0 .977-.543 1.519-1.627 1.519h-4.666c-1.086 0-1.627-.542-1.627-1.519V58.89c0-9.221-.217-13.996-3.256-17.468-2.277-2.604-6.183-3.905-11.391-3.905-4.773 0-10.199 1.736-13.021 4.665-1.735 1.953-2.494 4.34-2.818 8.354-.327 3.797-.437 9.331-.437 16.383v19.636c0 .977-.541 1.519-1.628 1.519h-4.663c-1.086 0-1.627-.542-1.627-1.519V53.791c0-8.354-.109-15.84-.326-21.482 0-.976.543-1.519 1.628-1.519h4.339c1.193 0 1.736.434 1.844 1.519.109.977.324 3.689.324 4.992 3.799-4.342 10.852-7.596 17.905-7.596zM590.032 60.951c0-18.335 10.091-31.246 25.93-31.246 15.407 0 22.892 12.585 22.892 29.293 0 2.387-.651 3.363-1.844 3.363h-38.623c.217 13.237 6.833 19.421 19.528 19.421 4.122 0 9.005-.977 14.212-3.472.978-.435 1.52-.326 2.061.651l1.411 3.363c.434 1.086.217 1.627-.868 2.278-5.098 3.039-11.175 4.557-18.552 4.557-17.792.001-26.147-11.066-26.147-28.208zm8.572-5.533h32.112c0-8.572-4.446-18.335-14.645-18.335-9.983 0-15.948 6.834-17.467 18.335z"/>
  </g>
</svg>
