<svg width="39" height="39" viewBox="0 0 39 39" fill="#009703" xmlns="http://www.w3.org/2000/svg">
<g id="update_24dp_E8EAED_FILL0_wght300_GRAD0_opsz24 1">
<path id="Vector" d="M19.5152 33.3125C17.598 33.3125 15.802 32.95 14.1271 32.225C12.4526 31.4999 10.9924 30.5145 9.74653 29.2687C8.5007 28.0229 7.51541 26.5628 6.79066 24.8885C6.06564 23.2139 5.70312 21.418 5.70312 19.5008C5.70312 17.5836 6.06564 15.7876 6.79066 14.1127C7.51541 12.4376 8.5007 10.9771 9.74653 9.73131C10.9924 8.48548 12.4526 7.50005 14.1271 6.77503C15.802 6.05001 17.598 5.6875 19.5152 5.6875C21.5592 5.6875 23.5009 6.11718 25.3404 6.97653C27.1799 7.83588 28.759 9.04367 30.0777 10.5999V7.96859C30.0777 7.62328 30.1946 7.3339 30.4283 7.10044C30.662 6.86671 30.9517 6.74984 31.2973 6.74984C31.6426 6.74984 31.932 6.86671 32.1654 7.10044C32.3986 7.3339 32.5152 7.62328 32.5152 7.96859V13.531C32.5152 13.9472 32.3745 14.2961 32.0931 14.5775C31.8115 14.8591 31.4626 15 31.0466 15H25.4842C25.1389 15 24.8494 14.8831 24.6157 14.6494C24.3822 14.4156 24.2655 14.1261 24.2655 13.7808C24.2655 13.4352 24.3822 13.1458 24.6157 12.9127C24.8494 12.6792 25.1389 12.5625 25.4842 12.5625H28.5153C27.3946 11.1812 26.0581 10.0964 24.506 9.308C22.9539 8.51933 21.2903 8.125 19.5152 8.125C16.3465 8.125 13.6584 9.22865 11.4512 11.4359C9.24386 13.6432 8.14022 16.3312 8.14022 19.5C8.14022 22.6687 9.24386 25.3568 11.4512 27.5641C13.6584 29.7714 16.3465 30.875 19.5152 30.875C22.1404 30.875 24.4763 30.0693 26.523 28.4578C28.57 26.8464 29.9029 24.7854 30.5217 22.2751C30.6257 21.9355 30.8095 21.6782 31.073 21.5032C31.3366 21.3283 31.6346 21.2626 31.9672 21.3062C32.3201 21.3501 32.5929 21.5074 32.7858 21.7782C32.9783 22.0491 33.0309 22.3459 32.9434 22.6687C32.2414 25.7771 30.6446 28.3281 28.1529 30.3217C25.6612 32.3156 22.782 33.3125 19.5152 33.3125ZM20.734 19.0064L25.2027 23.4752C25.4278 23.6999 25.5429 23.9827 25.548 24.3234C25.5534 24.6641 25.4383 24.9521 25.2027 25.1875C24.9674 25.4229 24.682 25.5405 24.3467 25.5405C24.0112 25.5405 23.7257 25.4229 23.4904 25.1875L18.7373 20.4344C18.5853 20.2822 18.4739 20.1164 18.4029 19.9371C18.3322 19.7578 18.2969 19.5726 18.2969 19.3814V12.5937C18.2969 12.2484 18.4136 11.9589 18.6471 11.7252C18.8808 11.4917 19.1704 11.375 19.516 11.375C19.8613 11.375 20.1507 11.4917 20.3842 11.7252C20.6174 11.9589 20.734 12.2484 20.734 12.5937V19.0064Z" fill="#009703"/>
</g>
</svg>
