<svg xmlns="http://www.w3.org/2000/svg" xmlns:xlink="http://www.w3.org/1999/xlink" width="1080" zoomAndPan="magnify" viewBox="0 0 810 809.999993" height="1080" preserveAspectRatio="xMidYMid meet" version="1.2"><defs><clipPath id="949f258dc1"><path d="M 226 229 L 586 229 L 586 587 L 226 587 Z M 226 229 "/></clipPath><clipPath id="f5bc656590"><path d="M 525.378906 204.964844 L 610.34375 290.8125 L 286.402344 611.425781 L 201.4375 525.578125 Z M 525.378906 204.964844 "/></clipPath><clipPath id="0b7d969d08"><path d="M 567.859375 247.886719 C 591.324219 271.59375 591.125 309.832031 567.421875 333.296875 L 329.640625 568.632812 C 305.9375 592.09375 267.699219 591.898438 244.234375 568.191406 C 220.773438 544.484375 220.96875 506.246094 244.675781 482.785156 L 482.453125 247.449219 C 506.160156 223.984375 544.398438 224.183594 567.859375 247.886719 Z M 567.859375 247.886719 "/></clipPath><clipPath id="8e45b347e2"><path d="M 228 230 L 590 230 L 590 597 L 228 597 Z M 228 230 "/></clipPath><clipPath id="3554d24917"><path d="M 203.75 289.460938 L 290.15625 205.066406 L 614.886719 537.53125 L 528.480469 621.929688 Z M 203.75 289.460938 "/></clipPath><clipPath id="9052954b1d"><path d="M 246.953125 247.265625 C 270.8125 223.957031 309.050781 224.410156 332.355469 248.269531 L 572.363281 493.996094 C 595.667969 517.855469 595.21875 556.089844 571.355469 579.398438 C 547.496094 602.703125 509.261719 602.253906 485.953125 578.390625 L 245.945312 332.667969 C 222.640625 308.804688 223.089844 270.570312 246.953125 247.265625 Z M 246.953125 247.265625 "/></clipPath></defs><g id="0d7f528bb7"><g clip-rule="nonzero" clip-path="url(#949f258dc1)"><g clip-rule="nonzero" clip-path="url(#f5bc656590)"><g clip-rule="nonzero" clip-path="url(#0b7d969d08)"><path style=" stroke:none;fill-rule:nonzero;fill:#ffffff;fill-opacity:1;" d="M 525.378906 204.964844 L 610.34375 290.8125 L 286.738281 611.09375 L 201.773438 525.246094 Z M 525.378906 204.964844 "/></g></g></g><g clip-rule="nonzero" clip-path="url(#8e45b347e2)"><g clip-rule="nonzero" clip-path="url(#3554d24917)"><g clip-rule="nonzero" clip-path="url(#9052954b1d)"><path style=" stroke:none;fill-rule:nonzero;fill:#ffffff;fill-opacity:1;" d="M 203.75 289.460938 L 290.15625 205.066406 L 614.558594 537.195312 L 528.148438 621.589844 Z M 203.75 289.460938 "/></g></g></g><path style=" stroke:none;fill-rule:evenodd;fill:#1d1d1b;fill-opacity:1;" d="M 405 0 C 629.105469 0 810 181.898438 810 405 C 810 629.105469 629.105469 810 405 810 C 181.898438 810 0 629.105469 0 405 C 0 181.898438 181.898438 0 405 0 Z M 405 503.484375 L 291.4375 617.046875 C 228.125 681.363281 129.640625 582.878906 193.957031 518.5625 L 307.519531 405 L 193.957031 291.4375 C 129.640625 228.125 228.125 129.640625 291.4375 193.957031 L 405 307.519531 L 518.5625 193.957031 C 582.878906 129.640625 681.363281 228.125 617.046875 291.4375 L 503.484375 405 L 617.046875 518.5625 C 681.363281 582.878906 582.878906 681.363281 518.5625 617.046875 Z M 405 503.484375 "/></g></svg>