<svg width="600" height="61" viewBox="0 0 600 61" fill="none" xmlns="http://www.w3.org/2000/svg">
<rect x="0.5" y="0.5" width="599" height="59.1504" stroke="white" stroke-opacity="0.01"/>
<path d="M272.825 25.1847V15.9111H261.749V3.82002H251.037V47.9005C251.037 51.9508 252.056 55.0374 254.066 57.075C256.074 59.1143 259.204 60.1481 263.369 60.1481H272.825V50.8744H265.906C264.4 50.8744 263.32 50.5436 262.695 49.8902C262.121 49.2923 261.749 47.7818 261.749 46.0425V25.1847H272.825Z" fill="black"/>
<path d="M124.4 15.9098L113.325 48.1362L102.25 15.9098H90.9974L106.985 59.7689H119.665L135.653 15.9098H124.4Z" fill="black"/>
<path d="M196.794 0.0072937H186.083V59.7683H196.794V0.0072937Z" fill="black"/>
<path d="M233.579 37.8813C233.579 40.6579 233.158 43.0735 232.329 45.0608C231.505 47.0375 230.326 48.5528 228.823 49.5635C227.321 50.5743 225.473 51.0871 223.333 51.0871C220.271 51.0871 217.959 50.0804 216.465 48.0967C214.955 46.0917 214.189 43.0528 214.189 39.0652V15.9111H203.478V40.2491C203.478 44.0387 203.951 47.2531 204.887 49.8016C205.823 52.3578 207.108 54.4372 208.708 55.9809C210.307 57.5228 212.174 58.6364 214.257 59.2921C216.329 59.9442 218.557 60.2745 220.881 60.2745C224.231 60.2745 227.003 59.6672 229.118 58.4691C231.047 57.3732 232.663 56.0919 233.93 54.6552L234.889 59.7682H244.291V15.9111H233.579L233.579 37.8813Z" fill="black"/>
<path d="M169.709 18.2239C166.333 16.3524 162.325 15.4042 157.797 15.4042C153.324 15.4042 149.331 16.3524 145.928 18.2233C142.52 20.0989 139.843 22.7479 137.969 26.0963C136.099 29.4417 135.151 33.4069 135.151 37.8813C135.151 42.3008 136.099 46.2382 137.969 49.5836C139.842 52.9309 142.519 55.5792 145.928 57.4549C149.331 59.3258 153.324 60.274 157.797 60.274C162.325 60.274 166.333 59.3258 169.709 57.4543C173.088 55.5798 175.751 52.9315 177.624 49.5836C179.495 46.2364 180.444 42.299 180.444 37.8813C180.444 33.4087 179.495 29.4435 177.624 26.0963C175.75 22.7473 173.088 20.0983 169.709 18.2239ZM164.05 49.5612C162.325 50.6848 160.221 51.2548 157.798 51.2548C155.43 51.2548 153.34 50.6848 151.585 49.5606C149.828 48.4352 148.449 46.8467 147.488 44.8386C146.522 42.8289 146.031 40.4883 146.031 37.8813C146.031 35.2205 146.521 32.8664 147.488 30.8838C148.449 28.9029 149.828 27.3138 151.588 26.1601C153.341 25.0076 155.431 24.4233 157.798 24.4233C160.22 24.4233 162.322 25.0076 164.048 26.1589C165.779 27.3132 167.145 28.9029 168.109 30.8844C169.074 32.8717 169.564 35.2259 169.564 37.8813C169.564 40.4824 169.074 42.8236 168.109 44.8386C167.145 46.8472 165.78 48.4357 164.05 49.5612Z" fill="black"/>
<path d="M11.132 14.7565H6.10352e-05V59.7704H11.132V14.7565Z" fill="black"/>
<path d="M46.0413 17.3305C46.0413 7.7789 38.2632 0.00789637 28.7021 0.00789637H6.10352e-05V9.62097H27.3374C31.6642 9.62097 35.2485 13.0203 35.3276 17.1982C35.3672 19.2902 34.5821 21.2645 33.117 22.7574C31.6513 24.2509 29.6929 25.0739 27.6027 25.0739H16.9535C16.5754 25.0739 16.2675 25.3811 16.2675 25.7592V34.3029C16.2675 34.4483 16.3124 34.5871 16.3969 34.7041L34.4651 59.7706H47.6913L29.5812 34.6354C38.7016 34.1775 46.0413 26.5146 46.0413 17.3305Z" fill="black"/>
<path d="M80.2693 17.9687C77.0628 16.2667 73.2553 15.4042 68.9528 15.4042C64.645 15.4042 60.7933 16.353 57.5045 18.2251C54.2105 20.0989 51.6188 22.7485 49.8022 26.0987C47.9874 29.4412 47.0676 33.4341 47.0676 37.967C47.0676 42.3846 48.0016 46.3208 49.8447 49.6669C51.692 53.0207 54.3563 55.6555 57.7626 57.498C61.1625 59.3405 65.2405 60.2745 69.8827 60.2745C73.5655 60.2745 76.8725 59.5845 79.7122 58.2228C82.5526 56.8576 84.8714 54.9984 86.6046 52.6969C88.2511 50.5093 89.3617 48.0352 89.9052 45.3437L89.9636 45.0566H79.3117L79.2615 45.2292C78.6748 47.2366 77.5371 48.8227 75.8782 49.9446C74.0977 51.1509 71.9107 51.7629 69.377 51.7629C67.2296 51.7629 65.2901 51.3027 63.6129 50.3953C61.944 49.4933 60.639 48.203 59.7352 46.5596C58.8278 44.9102 58.3114 42.9258 58.201 40.6733V40.3212H90.3765L90.4125 40.1245C90.5248 39.5071 90.5969 38.8709 90.6281 38.2311C90.6547 37.6078 90.6701 36.9852 90.6701 36.3566C90.6128 32.1073 89.6629 28.3696 87.8475 25.2463C86.0251 22.1193 83.4754 19.6706 80.2693 17.9687ZM76.3662 26.228C78.1964 27.7682 79.3348 29.9569 79.7524 32.7376H58.5709C58.8131 30.9334 59.4121 29.3708 60.3532 28.0889C61.3404 26.7444 62.6052 25.6881 64.1128 24.9491C65.6222 24.2077 67.2792 23.8314 69.0374 23.8314C72.0094 23.8313 74.4752 24.6377 76.3662 26.228Z" fill="black"/>
<path d="M323.329 29.7651C328.777 27.8739 332.422 23.8131 332.422 17.2019C332.422 7.86591 325.567 1.91385 313.246 1.91385H292.753V59.7684H313.836C327.563 59.7684 334.833 53.4868 334.833 43.2311C334.833 34.8842 329.454 30.9108 323.346 29.7651H323.329ZM299.936 8.4386H313.576C321.09 8.4386 325.237 11.9092 325.237 17.7051C325.237 23.501 321.021 27.041 313.576 27.041H299.936V8.4386ZM313.819 53.2439H299.936V33.4963H313.819C322.409 33.4963 327.459 37.0538 327.459 43.5783C327.459 49.5302 322.739 53.2439 313.819 53.2439Z" fill="black"/>
<path d="M431.281 17.6183H424.497V59.7683H431.281V17.6183Z" fill="black"/>
<path d="M427.967 1.75768C425.486 1.75768 423.576 3.57971 423.576 6.13067C423.576 8.68155 425.486 10.5209 427.967 10.5209C430.449 10.5209 432.34 8.69888 432.34 6.13067C432.34 3.56238 430.449 1.75768 427.967 1.75768Z" fill="black"/>
<path d="M543.572 35.2236C537.446 34.4778 532.987 33.9055 532.987 29.274C532.987 25.3884 536.961 22.9082 542.826 22.9082C548.691 22.9082 552.578 26.1348 553.081 30.4193H560.022C559.363 21.6593 552.422 17.2013 542.826 17.1146C533.316 17.0278 526.288 22.0756 526.288 29.7596C526.288 38.5196 533.802 40.4275 543.242 41.5727C549.524 42.3185 554.157 42.7348 554.157 48.0253C554.157 51.911 549.94 54.478 543.988 54.478C536.96 54.478 532.587 50.8357 532.327 45.8916H525.386C525.559 55.1546 533.073 60.2716 543.988 60.2716C553.324 60.2716 560.856 55.3974 560.856 47.5398C560.856 38.2074 553.168 36.3863 543.572 35.2236Z" fill="black"/>
<path d="M444.734 17.6105L445.643 23.3142C448.123 20.0904 452.422 17.1145 459.531 17.1145C469.037 17.1145 476.559 22.3223 476.559 36.2922V59.7684H469.781V36.7055C469.781 27.9432 465.73 23.3142 458.373 23.3142C450.438 23.3142 445.643 29.1832 445.643 38.6894V59.7683H438.865V17.6105H444.734Z" fill="black"/>
<path d="M481.779 38.6762C481.779 25.8613 489.881 17.0976 501.786 17.0976C513.692 17.0976 521.463 24.6212 521.794 37.1053C521.794 38.0147 521.711 39.0069 521.629 39.999H488.889V40.5777C489.137 48.5973 494.18 54.2194 502.2 54.2194C508.152 54.2194 512.782 51.0776 514.188 45.621H521.05C519.396 54.0539 512.452 60.2547 502.696 60.2547C490.046 60.2547 481.779 51.5737 481.779 38.6762ZM514.519 34.377C513.857 27.1015 508.897 23.0503 501.869 23.0503C495.668 23.0503 489.964 27.5148 489.302 34.377H514.519Z" fill="black"/>
<path d="M340.707 17.6183H347.485V40.6809C347.485 49.443 351.453 54.072 358.479 54.072C366.167 54.072 370.796 48.203 370.796 38.697V17.6183H377.574V59.7756H371.705L370.796 54.1547C368.316 57.2958 364.266 60.2716 357.322 60.2716C348.064 60.2716 340.707 55.0639 340.707 41.0941L340.707 17.6183Z" fill="black"/>
<path d="M582.721 35.2236C576.596 34.4778 572.136 33.9055 572.136 29.274C572.136 25.3884 576.11 22.9082 581.975 22.9082C587.84 22.9082 591.727 26.1348 592.231 30.4193H599.172C598.512 21.6593 591.571 17.2013 581.975 17.1145C572.465 17.0277 565.438 22.0756 565.438 29.7596C565.438 38.5195 572.951 40.4274 582.391 41.5726C588.673 42.3184 593.306 42.7347 593.306 48.0253C593.306 51.9109 589.089 54.4779 583.137 54.4779C576.11 54.4779 571.737 50.8356 571.476 45.8915H564.535C564.708 55.1545 572.222 60.2716 583.137 60.2716C592.473 60.2716 600.005 55.3973 600.005 47.5397C600.005 38.2074 592.317 36.3863 582.721 35.2236Z" fill="black"/>
<path d="M401.504 35.2236C395.378 34.4778 390.918 33.9055 390.918 29.274C390.918 25.3884 394.892 22.9082 400.758 22.9082C406.623 22.9082 410.51 26.1348 411.013 30.4193H417.954C417.295 21.6593 410.354 17.2013 400.758 17.1145C391.248 17.0277 384.22 22.0756 384.22 29.7596C384.22 38.5195 391.734 40.4274 401.174 41.5726C407.456 42.3184 412.089 42.7347 412.089 48.0253C412.089 51.9109 407.872 54.4779 401.92 54.4779C394.892 54.4779 390.519 50.8356 390.259 45.8915H383.317C383.491 55.1545 391.005 60.2716 401.92 60.2716C411.256 60.2716 418.787 55.3973 418.787 47.5397C418.788 38.2074 411.1 36.3863 401.504 35.2236Z" fill="black"/>
</svg>
