<?xml version="1.0" encoding="UTF-8"?>
<svg id="Warstwa_2" data-name="Warstwa 2" xmlns="http://www.w3.org/2000/svg" viewBox="0 0 266.74 272.43">
  <defs>
    <style>
      .cls-1 {
        fill: none;
        stroke: #1d1d1a;
        stroke-linecap: round;
        stroke-linejoin: round;
        stroke-width: 7px;
      }

      .cls-2 {
        fill: #ffc009;
      }
    </style>
  </defs>
  <g id="Warstwa_1-2" data-name="Warstwa 1">
    <g id="Layer_2" data-name="Layer 2">
      <path class="cls-2" d="M7.92,96.7v-26.4C7.92,31.47,39.39,0,78.22,0h91.4c38.83,0,70.3,31.47,70.3,70.3v26.4c0,27.8-26.9,28.62-26.9,28.62,0,0-6.19-10.09-10.79-10.38s-16.88,9-16.88,9h-91.02s-8.22-14.72-23.8-15.48c-20.11-.98-34.04,12.24-34.04,12.24v30.8S7.92,120.96,7.92,96.7Z"/>
      <path class="cls-2" d="M177.6,68V0h51.4c14.14,0,25.6,11.46,25.6,25.6v6c0,20.1-16.3,36.4-36.4,36.4h-40.6Z"/>
      <path class="cls-2" d="M211.29,119.08c-10-10.98-25.55,5.18-25.55,5.18v-38.31h39.6c22.86,0,41.4,18.53,41.4,41.4v1.21c0,22.86-17.53,34.24-40.4,34.24l-11.85-1.34s5.38-32.96-3.2-42.38Z"/>
      <path class="cls-2" d="M248.08,52.38c-6.26,7.6-8.16,17.67-8.16,24.74,0,2.9-.07,9.28,8.82,16.08-6.01-.06-11.65,4.19-17.62,4.85-.93-12.27-.54-24.63,1.15-36.81.47-3.34,1.03-6.74.51-10.08"/>
      <path class="cls-1" d="M214.5,131.18v67.75c0,38.66-31.34,70-70,70h-38c-38.66,0-70-31.34-70-70v-75"/>
      <line class="cls-1" x1="94.34" y1="123.93" x2="185.35" y2="123.93"/>
      <path class="cls-1" d="M36.5,123.18c2.59-19.62,55.58-19.89,57.84.75"/>
      <line class="cls-1" x1="70.54" y1="99.14" x2="88.87" y2="114.89"/>
      <path class="cls-1" d="M185.74,123.93l6.71-5.87c2.36-2.07,5.41-3.19,8.55-3.14l1.23.02c4.5.06,7.36,1.69,10.09,5.45,0,0,2.18,2.55,2.18,10.79"/>
      <path class="cls-1" d="M159.27,92.17c28.87-25.06,47.89,7.18,40.05,22.72"/>
      <path class="cls-1" d="M214.5,201.29v-38.5h13.75c10.63,0,19.25,8.62,19.25,19.25h0c0,10.63-8.62,19.25-19.25,19.25h-13.75Z"/>
      <path class="cls-1" d="M36.5,201.29v-38.5h-13.75c-10.63,0-19.25,8.62-19.25,19.25h0c0,10.63,8.62,19.25,19.25,19.25h13.75Z"/>
      <path class="cls-1" d="M91.99,224.3c14.15,17.78,48.38,18.37,67.28-.52"/>
      <path class="cls-1" d="M142.26,174.03c10.18-21.43,44.76-20.37,51.05,1.44"/>
      <path class="cls-1" d="M59.26,174.03c10.18-21.43,44.76-20.37,51.05,1.44"/>
    </g>
  </g>
</svg>