<svg width="17" height="17" viewBox="0 0 17 17" fill="none" xmlns="http://www.w3.org/2000/svg">
<path id="Vector" d="M16.2843 8.34073C16.0817 8.34073 15.9035 8.26979 15.7497 8.12793C15.5959 7.98623 15.5056 7.8103 15.4787 7.60013C15.2621 6.00621 14.5825 4.645 13.4398 3.5165C12.2971 2.38783 10.9189 1.71652 9.30534 1.50257C9.09256 1.47591 8.91436 1.38918 8.77073 1.24238C8.62726 1.09558 8.55553 0.917093 8.55553 0.706929C8.55553 0.496765 8.62985 0.320832 8.77847 0.179132C8.9271 0.0372673 9.10272 -0.0203345 9.30534 0.00632687C11.3406 0.224062 13.0758 1.04151 14.5107 2.45868C15.9455 3.87601 16.7732 5.58983 16.9936 7.60013C17.0206 7.80009 16.9623 7.97356 16.8186 8.12052C16.6752 8.26733 16.4971 8.34073 16.2843 8.34073ZM12.1489 8.34073C11.9834 8.34073 11.8382 8.28568 11.7132 8.17557C11.5882 8.06547 11.4938 7.91859 11.4298 7.73492C11.2772 7.20071 10.9974 6.72944 10.5905 6.32113C10.1836 5.91281 9.70973 5.63657 9.16887 5.4924C8.98292 5.42904 8.83421 5.33564 8.72274 5.21221C8.61127 5.08878 8.55553 4.94033 8.55553 4.76687C8.55553 4.52 8.64168 4.32062 8.81397 4.16871C8.98642 4.01681 9.1822 3.96744 9.40131 4.02059C10.2768 4.22187 11.0311 4.63521 11.6642 5.2606C12.2974 5.88599 12.7191 6.63415 12.9294 7.50509C12.9832 7.72167 12.9291 7.91505 12.7669 8.08522C12.6048 8.25556 12.3988 8.34073 12.1489 8.34073ZM15.9361 17C14.0521 17 12.1593 16.5673 10.2578 15.702C8.3565 14.8366 6.60795 13.616 5.0122 12.04C3.42295 10.4638 2.19027 8.73826 1.31416 6.86324C0.438053 4.98839 0 3.12053 0 1.25966C0 0.963422 0.0999741 0.714911 0.299922 0.514128C0.49987 0.313509 0.749806 0.2132 1.04973 0.2132H4.31038C4.56282 0.2132 4.78551 0.294583 4.97846 0.457349C5.17141 0.619951 5.29413 0.820898 5.34661 1.06019L5.91972 3.96554C5.95937 4.23512 5.95104 4.46676 5.89472 4.66047C5.83824 4.85417 5.73693 5.01686 5.5908 5.14852L3.2819 7.36857C3.65347 8.0407 4.07803 8.67654 4.55557 9.2761C5.03295 9.87548 5.54981 10.448 6.10617 10.9935C6.65469 11.5355 7.23787 12.0388 7.85571 12.5034C8.47355 12.968 9.14071 13.4003 9.8572 13.8004L12.1006 11.5653C12.2571 11.4045 12.4465 11.2917 12.669 11.2271C12.8912 11.1626 13.1223 11.1468 13.362 11.1797L16.1381 11.7381C16.3905 11.8039 16.5965 11.9311 16.7562 12.1197C16.9158 12.3083 16.9956 12.5223 16.9956 12.7616V15.9632C16.9956 16.2594 16.894 16.5063 16.6909 16.7038C16.4876 16.9013 16.236 17 15.9361 17Z" fill="#009703"/>
</svg>
